<svg width="23" height="25" viewBox="0 0 23 25" fill="none" xmlns="http://www.w3.org/2000/svg">
<mask id="mask0_480_20" style="mask-type:alpha" maskUnits="userSpaceOnUse" x="0" y="0" width="23" height="25">
<path fill-rule="evenodd" clip-rule="evenodd" d="M0.333374 0.333984H22.8324V24.5085H0.333374V0.333984Z" fill="white"/>
</mask>
<g mask="url(#mask0_480_20)">
<path fill-rule="evenodd" clip-rule="evenodd" d="M6.40263 18.3473C6.66979 18.3473 6.93696 18.3812 7.19829 18.4512C7.98696 18.6635 8.67179 19.1908 9.07779 19.899C9.34146 20.3435 9.48729 20.8626 9.49196 21.3923C9.49196 22.1506 10.101 22.7585 10.85 22.7585H12.3118C13.0573 22.7585 13.6663 22.1541 13.6698 21.4086C13.6651 20.585 13.9871 19.8022 14.5763 19.213C15.1573 18.632 15.9693 18.2832 16.7813 18.3065C17.3133 18.3193 17.8255 18.4628 18.277 18.7195C18.9268 19.0917 19.7563 18.87 20.132 18.2283L20.9066 16.9368C21.0793 16.6393 21.1295 16.266 21.0373 15.9218C20.9463 15.5777 20.7176 15.279 20.4096 15.1028C19.6886 14.6875 19.1741 14.0178 18.9606 13.2152C18.7495 12.4277 18.865 11.5678 19.2768 10.8597C19.5451 10.393 19.9383 9.99982 20.4096 9.72915C21.042 9.35932 21.2636 8.53215 20.8961 7.88815C20.881 7.86248 20.867 7.83565 20.8553 7.80765L20.1716 6.62232C19.7995 5.97482 18.9711 5.75198 18.3213 6.12182C17.619 6.53715 16.7836 6.65615 15.981 6.44498C15.1795 6.23732 14.5075 5.72982 14.0886 5.01348C13.8203 4.56548 13.6745 4.04398 13.6698 3.51315C13.6803 3.11415 13.5403 2.75598 13.286 2.49348C13.0328 2.23215 12.677 2.08398 12.3118 2.08398H10.85C10.4883 2.08398 10.15 2.22515 9.89446 2.47948C9.64013 2.73498 9.50129 3.07448 9.50363 3.43615C9.47913 5.14182 8.08496 6.51498 6.39679 6.51498C5.85546 6.50915 5.33396 6.36332 4.88129 6.09265C4.24546 5.73098 3.41479 5.95382 3.04263 6.60132L2.25279 7.89982C1.89113 8.52748 2.11279 9.35698 2.75679 9.73148C3.71229 10.2845 4.30846 11.3158 4.30846 12.4218C4.30846 13.5278 3.71229 14.558 2.75446 15.1122C2.11396 15.4832 1.89229 16.308 2.26329 16.9497L2.99946 18.219C3.18146 18.5468 3.47896 18.7837 3.82313 18.8805C4.16613 18.9762 4.54413 18.9353 4.85913 18.7603C5.32229 18.4885 5.86129 18.3473 6.40263 18.3473M12.3118 24.5085H10.85C9.13613 24.5085 7.74196 23.1155 7.74196 21.4017C7.73963 21.1905 7.67896 20.9711 7.56579 20.781C7.38263 20.4613 7.08629 20.2327 6.74446 20.1417C6.40496 20.0507 6.03279 20.1008 5.72713 20.2781C4.99446 20.6865 4.13229 20.7857 3.34363 20.564C2.55613 20.3412 1.87596 19.7998 1.47696 19.0823L0.747792 17.8258C-0.105042 16.3465 0.402458 14.4507 1.87946 13.5967C2.29829 13.3552 2.55846 12.9048 2.55846 12.4218C2.55846 11.9388 2.29829 11.4873 1.87946 11.2458C0.401292 10.3872 -0.105042 8.48665 0.746625 7.00732L1.53763 5.70882C2.37879 4.24582 4.28046 3.73015 5.76329 4.58182C5.96513 4.70198 6.18446 4.76265 6.40729 4.76498C7.13413 4.76498 7.74196 4.16532 7.75363 3.42798C7.74896 2.61482 8.06979 1.83432 8.65429 1.24515C9.24113 0.657151 10.0205 0.333984 10.85 0.333984H12.3118C13.1471 0.333984 13.9591 0.676984 14.5413 1.27315C15.1223 1.87282 15.4431 2.69532 15.4186 3.52948C15.421 3.71732 15.4828 3.93432 15.5948 4.12448C15.7803 4.43948 16.0731 4.66115 16.4208 4.75215C16.7685 4.83848 17.1325 4.79182 17.4416 4.60865C18.935 3.75582 20.8355 4.26682 21.6883 5.74848L22.4151 7.00732C22.4338 7.04115 22.4501 7.07382 22.4641 7.10765C23.2365 8.56715 22.7208 10.4047 21.2858 11.2435C21.077 11.3637 20.9078 11.5317 20.7911 11.7347C20.6103 12.0485 20.5601 12.4218 20.6511 12.7648C20.7445 13.1148 20.9673 13.4053 21.2811 13.585C21.9893 13.9922 22.5178 14.6782 22.729 15.4703C22.9401 16.2613 22.8246 17.12 22.4128 17.8282L21.6381 19.1185C20.7853 20.5838 18.8848 21.0913 17.4066 20.2373C17.2095 20.1241 16.982 20.0623 16.7556 20.0565H16.7486C16.4115 20.0565 16.065 20.2 15.813 20.4508C15.5575 20.7063 15.4175 21.047 15.4198 21.4086C15.4116 23.1225 14.0175 24.5085 12.3118 24.5085" fill="#2D005B"/>
</g>
<path fill-rule="evenodd" clip-rule="evenodd" d="M11.586 10.2205C10.3726 10.2205 9.38562 11.2086 9.38562 12.422C9.38562 13.6353 10.3726 14.6211 11.586 14.6211C12.7993 14.6211 13.7863 13.6353 13.7863 12.422C13.7863 11.2086 12.7993 10.2205 11.586 10.2205M11.586 16.3711C9.40779 16.3711 7.63562 14.6001 7.63562 12.422C7.63562 10.2438 9.40779 8.47046 11.586 8.47046C13.7641 8.47046 15.5363 10.2438 15.5363 12.422C15.5363 14.6001 13.7641 16.3711 11.586 16.3711" fill="#2D005B"/>
</svg>
