<svg width="28" height="28" viewBox="0 0 28 28" fill="none" xmlns="http://www.w3.org/2000/svg">
<path d="M21.8283 8.41166C21.7199 8.30231 21.5908 8.21551 21.4487 8.15628C21.3065 8.09705 21.154 8.06656 21 8.06656C20.846 8.06656 20.6935 8.09705 20.5513 8.15628C20.4091 8.21551 20.2801 8.30231 20.1716 8.41166L11.48 17.115L7.82832 13.4517C7.71571 13.3429 7.58278 13.2573 7.43711 13.1999C7.29145 13.1425 7.1359 13.1144 6.97936 13.1171C6.82281 13.1198 6.66834 13.1533 6.52474 13.2157C6.38115 13.2781 6.25126 13.3682 6.14248 13.4808C6.0337 13.5934 5.94817 13.7264 5.89077 13.872C5.83336 14.0177 5.80521 14.1732 5.80792 14.3298C5.81063 14.4863 5.84414 14.6408 5.90655 14.7844C5.96896 14.928 6.05904 15.0579 6.17165 15.1667L10.6516 19.6467C10.7601 19.756 10.8891 19.8428 11.0313 19.902C11.1735 19.9613 11.326 19.9918 11.48 19.9918C11.634 19.9918 11.7865 19.9613 11.9287 19.902C12.0708 19.8428 12.1999 19.756 12.3083 19.6467L21.8283 10.1267C21.9467 10.0174 22.0412 9.88481 22.1059 9.73723C22.1705 9.58965 22.2039 9.43028 22.2039 9.26916C22.2039 9.10804 22.1705 8.94867 22.1059 8.80108C22.0412 8.6535 21.9467 8.52091 21.8283 8.41166V8.41166Z" fill="black"/>
</svg>
