<svg width="26" height="26" viewBox="0 0 26 26" fill="none" xmlns="http://www.w3.org/2000/svg">
<path d="M12.9998 2.97919C16.7393 2.97919 19.7707 6.01059 19.7707 9.75002V19.7709H6.229V9.75002C6.229 6.01059 9.2604 2.97919 12.9998 2.97919ZM21.3957 19.7709V9.75002C21.3957 5.11312 17.6367 1.35419 12.9998 1.35419C8.36294 1.35419 4.604 5.11312 4.604 9.75002V19.7709H2.1665C1.71777 19.7709 1.354 20.1346 1.354 20.5834C1.354 21.0321 1.71777 21.3959 2.1665 21.3959H23.8332C24.2819 21.3959 24.6457 21.0321 24.6457 20.5834C24.6457 20.1346 24.2819 19.7709 23.8332 19.7709H21.3957Z" fill="#BCBEC0"/>
<path d="M9.479 20.5834C9.479 20.1346 9.84277 19.7709 10.2915 19.7709H15.7082C16.1569 19.7709 16.5207 20.1346 16.5207 20.5834V21.125C16.5207 23.0695 14.9443 24.6459 12.9998 24.6459C11.0553 24.6459 9.479 23.0695 9.479 21.125V20.5834ZM11.1232 21.3959C11.2546 22.3146 12.0448 23.0209 12.9998 23.0209C13.9549 23.0209 14.7451 22.3146 14.8765 21.3959H11.1232Z" fill="#BCBEC0"/>
<path d="M12.9998 2.97919C16.7393 2.97919 19.7707 6.01059 19.7707 9.75002V19.7709H6.229V9.75002C6.229 6.01059 9.2604 2.97919 12.9998 2.97919ZM21.3957 19.7709V9.75002C21.3957 5.11312 17.6367 1.35419 12.9998 1.35419C8.36294 1.35419 4.604 5.11312 4.604 9.75002V19.7709H2.1665C1.71777 19.7709 1.354 20.1346 1.354 20.5834C1.354 21.0321 1.71777 21.3959 2.1665 21.3959H23.8332C24.2819 21.3959 24.6457 21.0321 24.6457 20.5834C24.6457 20.1346 24.2819 19.7709 23.8332 19.7709H21.3957Z" stroke="#BCBEC0" stroke-linecap="round" stroke-linejoin="round"/>
<path d="M9.479 20.5834C9.479 20.1346 9.84277 19.7709 10.2915 19.7709H15.7082C16.1569 19.7709 16.5207 20.1346 16.5207 20.5834V21.125C16.5207 23.0695 14.9443 24.6459 12.9998 24.6459C11.0553 24.6459 9.479 23.0695 9.479 21.125V20.5834ZM11.1232 21.3959C11.2546 22.3146 12.0448 23.0209 12.9998 23.0209C13.9549 23.0209 14.7451 22.3146 14.8765 21.3959H11.1232Z" stroke="#BCBEC0" stroke-linecap="round" stroke-linejoin="round"/>
</svg>
<svg width="26" height="26" viewBox="0 0 26 26" fill="none" xmlns="http://www.w3.org/2000/svg">
<g clip-path="url(#clip0_9239_41521)">
<path d="M12.9998 2.97919C16.7393 2.97919 19.7707 6.01059 19.7707 9.75002V19.7709H6.229V9.75002C6.229 6.01059 9.2604 2.97919 12.9998 2.97919ZM21.3957 19.7709V9.75002C21.3957 5.11312 17.6367 1.35419 12.9998 1.35419C8.36294 1.35419 4.604 5.11312 4.604 9.75002V19.7709H2.1665C1.71777 19.7709 1.354 20.1346 1.354 20.5834C1.354 21.0321 1.71777 21.3959 2.1665 21.3959H23.8332C24.2819 21.3959 24.6457 21.0321 24.6457 20.5834C24.6457 20.1346 24.2819 19.7709 23.8332 19.7709H21.3957Z" fill="#BCBEC0"/>
<path d="M9.479 20.5834C9.479 20.1346 9.84277 19.7709 10.2915 19.7709H15.7082C16.1569 19.7709 16.5207 20.1346 16.5207 20.5834V21.125C16.5207 23.0695 14.9443 24.6459 12.9998 24.6459C11.0553 24.6459 9.479 23.0695 9.479 21.125V20.5834ZM11.1232 21.3959C11.2546 22.3146 12.0448 23.0209 12.9998 23.0209C13.9549 23.0209 14.7451 22.3146 14.8765 21.3959H11.1232Z" fill="#BCBEC0"/>
<path d="M12.9998 2.97919C16.7393 2.97919 19.7707 6.01059 19.7707 9.75002V19.7709H6.229V9.75002C6.229 6.01059 9.2604 2.97919 12.9998 2.97919ZM21.3957 19.7709V9.75002C21.3957 5.11312 17.6367 1.35419 12.9998 1.35419C8.36294 1.35419 4.604 5.11312 4.604 9.75002V19.7709H2.1665C1.71777 19.7709 1.354 20.1346 1.354 20.5834C1.354 21.0321 1.71777 21.3959 2.1665 21.3959H23.8332C24.2819 21.3959 24.6457 21.0321 24.6457 20.5834C24.6457 20.1346 24.2819 19.7709 23.8332 19.7709H21.3957Z" stroke="#BCBEC0" stroke-linecap="round" stroke-linejoin="round"/>
<path d="M9.479 20.5834C9.479 20.1346 9.84277 19.7709 10.2915 19.7709H15.7082C16.1569 19.7709 16.5207 20.1346 16.5207 20.5834V21.125C16.5207 23.0695 14.9443 24.6459 12.9998 24.6459C11.0553 24.6459 9.479 23.0695 9.479 21.125V20.5834ZM11.1232 21.3959C11.2546 22.3146 12.0448 23.0209 12.9998 23.0209C13.9549 23.0209 14.7451 22.3146 14.8765 21.3959H11.1232Z" stroke="#BCBEC0" stroke-linecap="round" stroke-linejoin="round"/>
<path d="M19.5 13.5C15.634 13.5 12.5 10.366 12.5 6.5C12.5 2.63401 15.634 -0.5 19.5 -0.5C23.366 -0.5 26.5 2.63401 26.5 6.5C26.5 10.366 23.366 13.5 19.5 13.5Z" fill="#FF0909" stroke="white"/>
</g>
<defs>
<clipPath id="clip0_9239_41521">
<rect width="26" height="26" fill="white"/>
</clipPath>
</defs>
</svg>
