<svg width="16" height="16" viewBox="0 0 16 16" fill="none" xmlns="http://www.w3.org/2000/svg">
<mask id="mask0_298_1557" style="mask-type:alpha" maskUnits="userSpaceOnUse" x="1" y="1" width="14" height="14">
<path fill-rule="evenodd" clip-rule="evenodd" d="M1.33331 1.33325H14.3178V14.3179H1.33331V1.33325Z" fill="white"/>
</mask>
<g mask="url(#mask0_298_1557)">
<path fill-rule="evenodd" clip-rule="evenodd" d="M7.82578 2.33341C4.79711 2.33341 2.33311 4.79674 2.33311 7.82541C2.33311 10.8541 4.79711 13.3181 7.82578 13.3181C10.8538 13.3181 13.3178 10.8541 13.3178 7.82541C13.3178 4.79674 10.8538 2.33341 7.82578 2.33341ZM7.82568 14.3179C4.24568 14.3179 1.33301 11.4053 1.33301 7.82525C1.33301 4.24525 4.24568 1.33325 7.82568 1.33325C11.4057 1.33325 14.3177 4.24525 14.3177 7.82525C14.3177 11.4053 11.4057 14.3179 7.82568 14.3179Z" fill="#006965"/>
</g>
<mask id="mask1_298_1557" style="mask-type:alpha" maskUnits="userSpaceOnUse" x="11" y="11" width="4" height="5">
<path fill-rule="evenodd" clip-rule="evenodd" d="M11.4932 11.8046H14.8426V15.1477H11.4932V11.8046Z" fill="white"/>
</mask>
<g mask="url(#mask1_298_1557)">
<path fill-rule="evenodd" clip-rule="evenodd" d="M14.3427 15.1477C14.2154 15.1477 14.0874 15.0991 13.9894 15.0017L11.6401 12.6591C11.4447 12.4637 11.4441 12.1471 11.6394 11.9517C11.8341 11.7551 12.1507 11.7564 12.3467 11.9504L14.6961 14.2937C14.8914 14.4891 14.8921 14.8051 14.6967 15.0004C14.5994 15.0991 14.4707 15.1477 14.3427 15.1477Z" fill="#006965"/>
</g>
</svg>
