<svg width="375" height="812" viewBox="0 0 375 812" fill="none" xmlns="http://www.w3.org/2000/svg">
<path d="M269.975 77.7706C273.342 46.2844 224.728 8.13761 200 -7H383.091C393.614 35.3853 413.081 129.965 406.767 169.202C398.875 218.248 331.531 169.202 312.065 169.202C292.598 169.202 265.766 117.128 269.975 77.7706Z" fill="#5856E7"/>
<path d="M282.243 68.9078C280.325 38.146 224.615 10.3105 197 0.238037L382.499 -32.5409C400.334 6.1739 436.065 93.2818 436.31 131.995C436.615 180.386 364.553 161.421 340.362 148.95C322.03 139.499 284.64 107.36 282.243 68.9078Z" fill="#F3F4FF" fill-opacity="0.5"/>
<path d="M302.49 76.9122C305.064 45.0019 267.903 6.34146 249 -9H388.959C397.003 33.9561 411.884 129.81 407.058 169.575C401.025 219.281 350.752 186.757 334.665 169.575C322.474 156.554 299.273 116.8 302.49 76.9122Z" fill="#8A88F5"/>
<path d="M96.6721 774.686C37.1307 777.427 -34.2387 709.4 -35.9321 677.124L-22.8886 925.746C58.3824 925.751 239.037 921.17 311.488 902.804C402.051 879.847 334.984 821.41 315.391 804.895C263.77 761.381 172.972 771.173 96.6721 774.686Z" fill="#5856E7"/>
<path d="M109.405 781.033C59.1864 785.669 4.05511 767.24 -28.2769 739.5L-10.8784 916.795C50.6981 918.472 187.48 918.112 241.996 903.25C310.14 884.672 259.608 840.711 256.592 820.808C253.577 800.904 180.741 774.447 109.405 781.033Z" fill="#8A88F5"/>
<path d="M123.677 789.712C74.8911 796.596 16.6269 797.276 -7.72248 787.951L-4.13667 858.148C62.048 856.101 209.598 849.608 270.321 840.014C346.225 828.021 294.151 801.852 267.105 794.596C246.61 789.098 184.659 781.107 123.677 789.712Z" fill="#F3F4FF" fill-opacity="0.5"/>
</svg>
