<svg width="45" height="44" viewBox="0 0 45 44" fill="none" xmlns="http://www.w3.org/2000/svg">
<path fill-rule="evenodd" clip-rule="evenodd" d="M29.618 22.171C29.1886 22.171 28.8141 21.8548 28.7523 21.4173C28.6858 20.9378 29.0183 20.4956 29.4978 20.4291C30.7111 20.2588 31.627 19.2065 31.6293 17.9791C31.6293 16.7623 30.7566 15.7333 29.5538 15.5361C29.0778 15.458 28.7546 15.0076 28.8328 14.5305C28.9121 14.0533 29.359 13.7336 29.8385 13.8095C31.8895 14.1466 33.3793 15.9013 33.3793 17.9815C33.3746 20.0756 31.8101 21.8723 29.7393 22.1628C29.6985 22.1686 29.6576 22.171 29.618 22.171" fill="#BCBEC0"/>
<mask id="mask0_137_6932" style="mask-type:alpha" maskUnits="userSpaceOnUse" x="30" y="24" width="6" height="6">
<path fill-rule="evenodd" clip-rule="evenodd" d="M30.8912 24.3352H35.3175V29.6197H30.8912V24.3352Z" fill="white"/>
</mask>
<g mask="url(#mask0_137_6932)">
<path fill-rule="evenodd" clip-rule="evenodd" d="M33.0883 29.6197C32.736 29.6197 32.4035 29.405 32.2705 29.0562C32.0978 28.6047 32.3253 28.0984 32.7768 27.9269C33.5678 27.6259 33.5678 27.2934 33.5678 27.1335C33.5678 26.6225 32.918 26.2655 31.637 26.0742C31.1598 26.0019 30.8297 25.5574 30.9008 25.0779C30.972 24.5995 31.4153 24.281 31.8972 24.3429C34.724 24.7664 35.3178 26.094 35.3178 27.1335C35.3178 27.7682 35.0682 28.9267 33.3998 29.5625C33.2972 29.601 33.1922 29.6197 33.0883 29.6197" fill="#BCBEC0"/>
</g>
<path fill-rule="evenodd" clip-rule="evenodd" d="M22.6178 26.5664C19.8458 26.5664 16.5406 26.9071 16.5406 28.5287C16.5406 30.1632 19.8458 30.5062 22.6178 30.5062C25.3898 30.5062 28.6938 30.1667 28.6938 28.5486C28.6938 26.9106 25.3898 26.5664 22.6178 26.5664M22.6178 32.2562C20.6823 32.2562 14.7906 32.2562 14.7906 28.5287C14.7906 24.8164 20.6823 24.8164 22.6178 24.8164C24.5533 24.8164 30.4438 24.8164 30.4438 28.5486C30.4438 32.2562 24.7587 32.2562 22.6178 32.2562" fill="#BCBEC0"/>
<path fill-rule="evenodd" clip-rule="evenodd" d="M22.6178 14.4167C20.6438 14.4167 19.0385 16.0232 19.0385 17.9972C19.035 18.9539 19.4013 19.8487 20.0722 20.5242C20.743 21.1997 21.6367 21.5742 22.5887 21.5777L22.6178 22.4527V21.5777C24.5918 21.5777 26.1983 19.9724 26.1983 17.9972C26.1983 16.0232 24.5918 14.4167 22.6178 14.4167M22.6178 23.3277H22.5863C21.163 23.3231 19.8295 22.7654 18.8308 21.7574C17.8298 20.7506 17.2827 19.4136 17.2885 17.9937C17.2885 15.0584 19.679 12.6667 22.6178 12.6667C25.5578 12.6667 27.9483 15.0584 27.9483 17.9972C27.9483 20.9361 25.5578 23.3277 22.6178 23.3277" fill="#BCBEC0"/>
<path fill-rule="evenodd" clip-rule="evenodd" d="M15.6167 22.1709C15.577 22.1709 15.5362 22.1686 15.4953 22.1628C13.4245 21.8723 11.8612 20.0756 11.8565 17.9838C11.8565 15.9013 13.3463 14.1466 15.3973 13.8094C15.8885 13.7324 16.3237 14.0556 16.403 14.5304C16.4812 15.0076 16.158 15.4579 15.682 15.5361C14.4792 15.7333 13.6065 16.7623 13.6065 17.9814C13.6088 19.2064 14.5247 20.2599 15.7368 20.4291C16.2163 20.4956 16.5488 20.9378 16.4823 21.4173C16.4205 21.8548 16.046 22.1709 15.6167 22.1709" fill="#BCBEC0"/>
<path fill-rule="evenodd" clip-rule="evenodd" d="M12.1475 29.6197C12.0436 29.6197 11.9386 29.601 11.836 29.5625C10.1665 28.9255 9.91681 27.767 9.91681 27.1335C9.91681 26.0952 10.5106 24.7664 13.3386 24.3429C13.8205 24.2822 14.2615 24.5995 14.3338 25.0779C14.405 25.5574 14.0748 26.0019 13.5976 26.0742C12.3166 26.2655 11.6668 26.6225 11.6668 27.1335C11.6668 27.2934 11.6668 27.6247 12.459 27.9269C12.9105 28.0984 13.138 28.6047 12.9653 29.0562C12.8323 29.405 12.4998 29.6197 12.1475 29.6197" fill="#BCBEC0"/>
</svg>
