<svg width="24" height="22" viewBox="0 0 24 22" fill="none" xmlns="http://www.w3.org/2000/svg">
<path fill-rule="evenodd" clip-rule="evenodd" d="M8.18575 1.02718L9.66082 1.23582L10.7308 0.200729C11.4114 0.0689961 12.1143 0 12.8334 0C13.5525 0 14.2554 0.0689961 14.936 0.200729L16.006 1.23582L17.481 1.02718C18.7706 1.62919 19.9241 2.47396 20.8827 3.50272L21.1393 4.9654L22.4543 5.6631C23.1278 6.87461 23.5791 8.22662 23.7531 9.66409L23.1001 11L23.7531 12.3359C23.5791 13.7734 23.1278 15.1254 22.4543 16.3369L21.1393 17.0346L20.8827 18.4973C19.9241 19.526 18.7706 20.3708 17.481 20.9728L16.006 20.7642L14.936 21.7993C14.2554 21.931 13.5525 22 12.8334 22C12.1143 22 11.4114 21.931 10.7308 21.7993L9.66082 20.7642L8.18575 20.9728C6.89618 20.3708 5.74269 19.526 4.78406 18.4973L4.52749 17.0346L3.2125 16.3369C2.53902 15.1254 2.08773 13.7734 1.9137 12.3359L2.56673 11L1.9137 9.66409C2.08773 8.22662 2.53902 6.87461 3.2125 5.6631L4.52749 4.9654L4.78406 3.50272C5.74269 2.47396 6.89618 1.62919 8.18575 1.02718Z" fill="#E8984F"/>
<path fill-rule="evenodd" clip-rule="evenodd" d="M6.35238 1.02718L7.82745 1.23582L8.89742 0.200729C9.578 0.0689962 10.281 0 11 0C11.7191 0 12.422 0.0689962 13.1026 0.200729L14.1726 1.23582L15.6477 1.02718C16.9372 1.62919 18.0907 2.47396 19.0494 3.50272L19.3059 4.9654L20.6209 5.6631C21.2944 6.87461 21.7457 8.22663 21.9197 9.66409L21.2667 11L21.9197 12.3359C21.7457 13.7734 21.2944 15.1254 20.6209 16.3369L19.3059 17.0346L19.0494 18.4973C18.0907 19.526 16.9372 20.3708 15.6477 20.9728L14.1726 20.7642L13.1026 21.7993C12.422 21.931 11.7191 22 11 22C10.281 22 9.578 21.931 8.89742 21.7993L7.82745 20.7642L6.35238 20.9728C5.0628 20.3708 3.90931 19.526 2.95069 18.4973L2.69411 17.0346L1.37912 16.3369C0.705643 15.1254 0.254354 13.7734 0.0803225 12.3359L0.733355 11L0.0803223 9.66409C0.254353 8.22662 0.705642 6.87461 1.37912 5.66311L2.69411 4.9654L2.95069 3.50272C3.90931 2.47396 5.0628 1.62919 6.35238 1.02718Z" fill="#F0D803"/>
<circle cx="11" cy="11.0001" r="7.33333" fill="#E8984F" fill-opacity="0.7"/>
</svg>
