<svg width="44" height="44" viewBox="0 0 44 44" fill="none" xmlns="http://www.w3.org/2000/svg">
<mask id="mask0_137_6924" style="mask-type:alpha" maskUnits="userSpaceOnUse" x="10" y="9" width="25" height="26">
<path fill-rule="evenodd" clip-rule="evenodd" d="M10.3333 9.16699H34.2498V34.2562H10.3333V9.16699Z" fill="white"/>
</mask>
<g mask="url(#mask0_137_6924)">
<path fill-rule="evenodd" clip-rule="evenodd" d="M24.0029 25.8399C25.4076 25.8399 26.5509 26.975 26.5509 28.3704V31.959C26.5509 32.2589 26.7913 32.4992 27.0993 32.5062H29.3229C31.0753 32.5062 32.4998 31.0992 32.4998 29.3702V19.1922C32.4916 18.5972 32.2081 18.0372 31.7216 17.665L24.0298 11.5307C22.9973 10.7129 21.5529 10.7129 20.5169 11.533L12.8776 17.6627C12.3724 18.0465 12.0889 18.6065 12.0831 19.212V29.3702C12.0831 31.0992 13.5076 32.5062 15.2599 32.5062H17.5046C17.8208 32.5062 18.0774 32.2554 18.0774 31.9474C18.0774 31.8797 18.0856 31.812 18.0996 31.7479V28.3704C18.0996 26.9832 19.2359 25.8492 20.6301 25.8399H24.0029ZM29.3229 34.2562H27.0783C25.7926 34.2259 24.8009 33.2167 24.8009 31.959V28.3704C24.8009 27.9399 24.4428 27.5899 24.0029 27.5899H20.6359C20.2054 27.5922 19.8496 27.9434 19.8496 28.3704V31.9474C19.8496 32.0349 19.8379 32.1189 19.8134 32.1982C19.6874 33.3532 18.7004 34.2562 17.5046 34.2562H15.2599C12.5428 34.2562 10.3331 32.064 10.3331 29.3702V19.2039C10.3448 18.0442 10.8791 16.9825 11.8019 16.2837L19.4261 10.1645C21.1049 8.83454 23.4441 8.83454 25.1194 10.1622L32.7984 16.2872C33.7003 16.9744 34.2346 18.0337 34.2498 19.1794V29.3702C34.2498 32.064 32.0401 34.2562 29.3229 34.2562V34.2562Z" fill="#BCBEC0"/>
</g>
</svg>
