<svg width="24" height="26" viewBox="0 0 24 26" fill="none" xmlns="http://www.w3.org/2000/svg">
<path d="M10.3028 17.5481L10.2981 17.5481C9.3983 17.553 8.6415 18.2832 8.6415 19.2036V22.7806C8.6415 22.7813 8.64149 22.7818 8.64149 22.7824L8.61958 22.8533L8.61049 22.9366C8.53277 23.649 7.91945 24.2145 7.1715 24.2145H4.92683C2.68613 24.2145 0.875 22.4073 0.875 20.2035V10.0418C0.885157 9.15432 1.29155 8.34879 1.99707 7.81452L2.00691 7.80707L2.01652 7.79935L9.63842 1.68201C10.9988 0.605824 12.886 0.606724 14.2418 1.68035C14.2421 1.68064 14.2425 1.68093 14.2429 1.68123L21.9197 7.80451L21.9273 7.81056L21.935 7.81644C22.6207 8.33887 23.0285 9.14317 23.0417 10.0188V20.2035C23.0417 22.4073 21.2305 24.2145 18.9898 24.2145H16.7566C15.9407 24.1906 15.3428 23.5619 15.3428 22.7923V19.2036C15.3428 18.2715 14.5743 17.5481 13.6698 17.5481L10.3028 17.5481Z" stroke="#5856E7" stroke-width="1.75"/>
</svg>
