<svg width="24" height="24" viewBox="0 0 24 24" fill="none" xmlns="http://www.w3.org/2000/svg">
<path d="M11.8007 14.3259L16.7595 9.35826L18.5256 11.1327L18.5277 11.1348C18.6675 11.2736 18.8333 11.3836 19.0156 11.4584C19.198 11.5331 19.3932 11.5713 19.5903 11.5706C19.7873 11.5699 19.9823 11.5304 20.1641 11.4543C20.3459 11.3782 20.5109 11.2671 20.6498 11.1273C20.7886 10.9875 20.8986 10.8217 20.9733 10.6393C21.0481 10.457 21.0862 10.2618 21.0855 10.0647C21.0848 9.86764 21.0453 9.67265 20.9693 9.49087C20.8933 9.30934 20.7824 9.14451 20.6429 9.00579C20.6427 9.00559 20.6425 9.0054 20.6423 9.0052L18.8783 7.24125L19.5887 6.53586L19.9352 6.8823C19.9354 6.8825 19.9356 6.8827 19.9358 6.88289C20.0745 7.02245 20.2393 7.13336 20.4208 7.2093C20.6026 7.28536 20.7976 7.32486 20.9947 7.32556C21.1917 7.32625 21.387 7.28813 21.5693 7.21336C21.7516 7.1386 21.9174 7.02865 22.0573 6.8898C22.1971 6.75096 22.3082 6.58593 22.3843 6.40414C22.4603 6.22235 22.4998 6.02736 22.5005 5.8303C22.5012 5.63325 22.4631 5.43799 22.3883 5.25566C22.3136 5.07334 22.2036 4.90753 22.0648 4.7677L22.0635 4.76645L21.7096 4.41252L22.061 4.06606L22.0635 4.06356C22.3456 3.78148 22.5041 3.39891 22.5041 3C22.5041 2.60109 22.3456 2.21852 22.0635 1.93645C21.7815 1.65438 21.3989 1.49591 21 1.49591C20.6011 1.49591 20.2185 1.65438 19.9364 1.93645L19.9352 1.93771L18.5364 3.34645L18.5352 3.34771L15.7067 6.17617L15.7064 6.17645L9.67404 12.1993C8.61069 11.6066 7.37665 11.3816 6.16561 11.5666C4.81866 11.7725 3.59607 12.471 2.73473 13.5268C1.87339 14.5826 1.43464 15.9206 1.50349 17.2814C1.57234 18.6423 2.14388 19.9291 3.10738 20.8926C4.07087 21.8561 5.35772 22.4276 6.71857 22.4965C8.07942 22.5653 9.41737 22.1266 10.4732 21.2652C11.529 20.4039 12.2275 19.1813 12.4333 17.8344C12.6184 16.6233 12.3934 15.3893 11.8007 14.3259ZM6.99997 19.5C6.50552 19.5 6.02217 19.3534 5.61105 19.0787C5.19993 18.804 4.87949 18.4135 4.69028 17.9567C4.50106 17.4999 4.45155 16.9972 4.54801 16.5123C4.64447 16.0273 4.88258 15.5819 5.23221 15.2322C5.58184 14.8826 6.0273 14.6445 6.51225 14.548C6.9972 14.4516 7.49987 14.5011 7.95668 14.6903C8.4135 14.8795 8.80394 15.2 9.07865 15.6111C9.35335 16.0222 9.49997 16.5055 9.49997 17C9.49997 17.663 9.23658 18.2989 8.76774 18.7678C8.2989 19.2366 7.66302 19.5 6.99997 19.5Z" fill="#FFC107" stroke="black"/>
</svg>
