<svg width="16" height="16" viewBox="0 0 16 16" fill="none" xmlns="http://www.w3.org/2000/svg">
<path fill-rule="evenodd" clip-rule="evenodd" d="M11.9246 8.09783C11.6792 8.09783 11.4652 7.91717 11.4299 7.66717C11.3919 7.39317 11.5819 7.1405 11.8559 7.1025C12.5492 7.00517 13.0726 6.40383 13.0739 5.7025C13.0739 5.00717 12.5752 4.41917 11.8879 4.3065C11.6159 4.26183 11.4312 4.0045 11.4759 3.73183C11.5212 3.45917 11.7766 3.2765 12.0506 3.31983C13.2226 3.5125 14.0739 4.51517 14.0739 5.70383C14.0712 6.9005 13.1772 7.92717 11.9939 8.09317C11.9706 8.0965 11.9472 8.09783 11.9246 8.09783" fill="#818181"/>
<mask id="mask0_254_605" style="mask-type:alpha" maskUnits="userSpaceOnUse" x="12" y="9" width="4" height="4">
<path fill-rule="evenodd" clip-rule="evenodd" d="M12.6521 9.33447H15.1814V12.3542H12.6521V9.33447Z" fill="white"/>
</mask>
<g mask="url(#mask0_254_605)">
<path fill-rule="evenodd" clip-rule="evenodd" d="M13.9076 12.3542C13.7063 12.3542 13.5163 12.2315 13.4403 12.0322C13.3416 11.7742 13.4716 11.4849 13.7296 11.3869C14.1816 11.2149 14.1816 11.0249 14.1816 10.9335C14.1816 10.6415 13.8103 10.4375 13.0783 10.3282C12.8056 10.2869 12.6169 10.0329 12.6576 9.75885C12.6983 9.48552 12.9516 9.30352 13.2269 9.33885C14.8423 9.58085 15.1816 10.3395 15.1816 10.9335C15.1816 11.2962 15.0389 11.9582 14.0856 12.3215C14.0269 12.3435 13.9669 12.3542 13.9076 12.3542" fill="#818181"/>
</g>
<path fill-rule="evenodd" clip-rule="evenodd" d="M7.92445 10.6094C6.34045 10.6094 4.45178 10.804 4.45178 11.7307C4.45178 12.6647 6.34045 12.8607 7.92445 12.8607C9.50845 12.8607 11.3964 12.6667 11.3964 11.742C11.3964 10.806 9.50845 10.6094 7.92445 10.6094M7.92445 13.8607C6.81845 13.8607 3.45178 13.8607 3.45178 11.7307C3.45178 9.60937 6.81845 9.60938 7.92445 9.60938C9.03045 9.60938 12.3964 9.60937 12.3964 11.742C12.3964 13.8607 9.14778 13.8607 7.92445 13.8607" fill="#818181"/>
<path fill-rule="evenodd" clip-rule="evenodd" d="M7.92451 3.66675C6.79651 3.66675 5.87918 4.58475 5.87918 5.71275C5.87718 6.25941 6.08651 6.77075 6.46984 7.15675C6.85318 7.54275 7.36384 7.75675 7.90784 7.75875L7.92451 8.25875V7.75875C9.05251 7.75875 9.97051 6.84141 9.97051 5.71275C9.97051 4.58475 9.05251 3.66675 7.92451 3.66675M7.92451 8.75875H7.90651C7.09318 8.75608 6.33118 8.43741 5.76051 7.86141C5.18851 7.28608 4.87584 6.52208 4.87918 5.71075C4.87918 4.03341 6.24518 2.66675 7.92451 2.66675C9.60451 2.66675 10.9705 4.03341 10.9705 5.71275C10.9705 7.39208 9.60451 8.75875 7.92451 8.75875" fill="#818181"/>
<path fill-rule="evenodd" clip-rule="evenodd" d="M3.92381 8.09771C3.90115 8.09771 3.87781 8.09638 3.85448 8.09305C2.67115 7.92705 1.77781 6.90038 1.77515 5.70505C1.77515 4.51505 2.62648 3.51238 3.79848 3.31971C4.07915 3.27571 4.32781 3.46038 4.37315 3.73171C4.41781 4.00438 4.23315 4.26171 3.96115 4.30638C3.27381 4.41905 2.77515 5.00705 2.77515 5.70371C2.77648 6.40371 3.29981 7.00571 3.99248 7.10238C4.26648 7.14038 4.45648 7.39305 4.41848 7.66705C4.38315 7.91705 4.16915 8.09771 3.92381 8.09771" fill="#818181"/>
<path fill-rule="evenodd" clip-rule="evenodd" d="M1.94141 12.3543C1.88208 12.3543 1.82208 12.3436 1.76341 12.3216C0.809415 11.9576 0.666748 11.2956 0.666748 10.9336C0.666748 10.3403 1.00608 9.58096 2.62208 9.33896C2.89741 9.30429 3.14941 9.48562 3.19075 9.75896C3.23141 10.033 3.04275 10.287 2.77008 10.3283C2.03808 10.4376 1.66675 10.6416 1.66675 10.9336C1.66675 11.025 1.66675 11.2143 2.11941 11.387C2.37741 11.485 2.50741 11.7743 2.40875 12.0323C2.33275 12.2316 2.14275 12.3543 1.94141 12.3543" fill="#818181"/>
</svg>
