<svg width="45" height="44" viewBox="0 0 45 44" fill="none" xmlns="http://www.w3.org/2000/svg">
<path fill-rule="evenodd" clip-rule="evenodd" d="M22.2084 26.8467C21.7254 26.8467 21.3334 26.4547 21.3334 25.9717V17.4236C21.3334 16.9406 21.7254 16.5486 22.2084 16.5486C22.6914 16.5486 23.0834 16.9406 23.0834 17.4236V25.9717C23.0834 26.4547 22.6914 26.8467 22.2084 26.8467" fill="#BCBEC0"/>
<path fill-rule="evenodd" clip-rule="evenodd" d="M26.486 22.572H17.9308C17.4466 22.572 17.0558 22.18 17.0558 21.697C17.0558 21.214 17.4466 20.822 17.9308 20.822H26.486C26.969 20.822 27.361 21.214 27.361 21.697C27.361 22.18 26.969 22.572 26.486 22.572" fill="#BCBEC0"/>
<path fill-rule="evenodd" clip-rule="evenodd" d="M16.7414 10.9167C13.5074 10.9167 11.4167 13.1299 11.4167 16.5576V26.8592C11.4167 30.2869 13.5074 32.5001 16.7414 32.5001H27.6754C30.9105 32.5001 33 30.2869 33 26.8592V16.5576C33 13.1299 30.9105 10.9167 27.6754 10.9167H16.7414ZM27.6754 34.2501H16.7414C12.5099 34.2501 9.66669 31.2797 9.66669 26.8592V16.5576C9.66669 12.1371 12.5099 9.16675 16.7414 9.16675H27.6754C31.9069 9.16675 34.75 12.1371 34.75 16.5576V26.8592C34.75 31.2797 31.9069 34.2501 27.6754 34.2501V34.2501Z" fill="#BCBEC0"/>
</svg>
