<svg width="45" height="44" viewBox="0 0 45 44" fill="none" xmlns="http://www.w3.org/2000/svg">
<mask id="mask0_137_6957" style="mask-type:alpha" maskUnits="userSpaceOnUse" x="11" y="9" width="23" height="21">
<path fill-rule="evenodd" clip-rule="evenodd" d="M11.7501 9.16675H33.3299V29.4061H11.7501V9.16675Z" fill="white"/>
</mask>
<g mask="url(#mask0_137_6957)">
<path fill-rule="evenodd" clip-rule="evenodd" d="M22.5383 10.9167C18.4608 10.9167 15.6188 14.1111 15.6188 16.9776C15.6188 19.4031 14.9456 20.5242 14.3506 21.5136C13.8735 22.3081 13.4966 22.9357 13.4966 24.2996C13.6915 26.4999 15.144 27.6561 22.5383 27.6561C29.8918 27.6561 31.3898 26.4486 31.5835 24.2237C31.58 22.9357 31.2031 22.3081 30.726 21.5136C30.131 20.5242 29.4578 19.4031 29.4578 16.9776C29.4578 14.1111 26.6158 10.9167 22.5383 10.9167M22.5383 29.4061C17.083 29.4061 12.1526 29.0211 11.7501 24.3742C11.7466 22.4516 12.3335 21.4739 12.8515 20.6129C13.3753 19.7402 13.8688 18.9177 13.8688 16.9776C13.8688 13.2057 17.3525 9.16675 22.5383 9.16675C27.7241 9.16675 31.2078 13.2057 31.2078 16.9776C31.2078 18.9177 31.7013 19.7402 32.2251 20.6129C32.7431 21.4739 33.33 22.4516 33.33 24.2996C32.9228 29.0211 27.9936 29.4061 22.5383 29.4061" fill="#BCBEC0"/>
</g>
<path fill-rule="evenodd" clip-rule="evenodd" d="M22.4814 34.2502H22.479C21.1712 34.249 19.9334 33.6727 18.9942 32.6262C18.671 32.268 18.7002 31.7139 19.0595 31.3919C19.4189 31.0675 19.9719 31.0967 20.295 31.4572C20.8994 32.1304 21.6752 32.5002 22.4802 32.5002H22.4814C23.2899 32.5002 24.0692 32.1304 24.6747 31.456C24.999 31.0979 25.552 31.0687 25.9102 31.3919C26.2695 31.715 26.2987 32.2692 25.9755 32.6274C25.0329 33.6739 23.7927 34.2502 22.4814 34.2502" fill="#BCBEC0"/>
</svg>
