<svg width="44" height="44" viewBox="0 0 44 44" fill="none" xmlns="http://www.w3.org/2000/svg">
<mask id="mask0_137_6967" style="mask-type:alpha" maskUnits="userSpaceOnUse" x="12" y="24" width="20" height="10">
<path fill-rule="evenodd" clip-rule="evenodd" d="M12.6667 24.9121H31.1466V33.5151H12.6667V24.9121Z" fill="white"/>
</mask>
<g mask="url(#mask0_137_6967)">
<path fill-rule="evenodd" clip-rule="evenodd" d="M21.9077 26.6621C16.9366 26.6621 14.4166 27.5161 14.4166 29.2019C14.4166 30.9029 16.9366 31.7651 21.9077 31.7651C26.8777 31.7651 29.3966 30.9111 29.3966 29.2253C29.3966 27.5243 26.8777 26.6621 21.9077 26.6621M21.9077 33.5151C19.6222 33.5151 12.6666 33.5151 12.6666 29.2019C12.6666 25.3566 17.9411 24.9121 21.9077 24.9121C24.1932 24.9121 31.1466 24.9121 31.1466 29.2253C31.1466 33.0706 25.8732 33.5151 21.9077 33.5151" fill="#BCBEC0"/>
</g>
<mask id="mask1_137_6967" style="mask-type:alpha" maskUnits="userSpaceOnUse" x="15" y="10" width="14" height="13">
<path fill-rule="evenodd" clip-rule="evenodd" d="M15.7115 10.3335H28.1016V22.7219H15.7115V10.3335Z" fill="white"/>
</mask>
<g mask="url(#mask1_137_6967)">
<path fill-rule="evenodd" clip-rule="evenodd" d="M21.9078 11.999C19.4099 11.999 17.3776 14.0302 17.3776 16.528C17.3694 19.0177 19.3866 21.0477 21.8739 21.057L21.9078 21.89V21.057C24.4044 21.057 26.4356 19.0247 26.4356 16.528C26.4356 14.0302 24.4044 11.999 21.9078 11.999M21.9078 22.7218H21.8704C18.4614 22.7113 15.6999 19.9312 15.7116 16.5245C15.7116 13.112 18.4906 10.333 21.9078 10.333C25.3238 10.333 28.1016 13.112 28.1016 16.528C28.1016 19.944 25.3238 22.7218 21.9078 22.7218" fill="#BCBEC0"/>
</g>
</svg>
