<svg width="56" height="56" viewBox="0 0 56 56" fill="none" xmlns="http://www.w3.org/2000/svg">
<g filter="url(#filter0_d_360_3696)">
<rect x="4" y="2" width="48" height="48" rx="24" fill="#5856E7"/>
<mask id="mask0_360_3696" style="mask-type:alpha" maskUnits="userSpaceOnUse" x="18" y="16" width="20" height="19">
<path fill-rule="evenodd" clip-rule="evenodd" d="M18 16H37.2231V34.7987H18V16Z" fill="white"/>
</mask>
<g mask="url(#mask0_360_3696)">
<path fill-rule="evenodd" clip-rule="evenodd" d="M27.6119 17.4483C23.128 17.4483 19.4802 21.0146 19.4802 25.3994C19.4802 29.7842 23.128 33.3515 27.6119 33.3515C32.0947 33.3515 35.7426 29.7842 35.7426 25.3994C35.7426 21.0146 32.0947 17.4483 27.6119 17.4483M27.6112 34.7987C22.3111 34.7987 17.999 30.5819 17.999 25.3989C17.999 20.2159 22.3111 16 27.6112 16C32.9112 16 37.2223 20.2159 37.2223 25.3989C37.2223 30.5819 32.9112 34.7987 27.6112 34.7987" fill="#F3F4FF"/>
</g>
<mask id="mask1_360_3696" style="mask-type:alpha" maskUnits="userSpaceOnUse" x="33" y="31" width="5" height="6">
<path fill-rule="evenodd" clip-rule="evenodd" d="M33.0414 31.1602H38V36.0003H33.0414V31.1602Z" fill="white"/>
</mask>
<g mask="url(#mask1_360_3696)">
<path fill-rule="evenodd" clip-rule="evenodd" d="M37.26 36.0003C37.0715 36.0003 36.882 35.9298 36.7369 35.7889L33.2588 32.3973C32.9696 32.1145 32.9686 31.656 33.2578 31.3732C33.546 31.0885 34.0148 31.0904 34.305 31.3713L37.7831 34.7639C38.0722 35.0467 38.0732 35.5042 37.784 35.787C37.6399 35.9298 37.4495 36.0003 37.26 36.0003" fill="#F3F4FF"/>
</g>
</g>
<defs>
<filter id="filter0_d_360_3696" x="0" y="0" width="56" height="56" filterUnits="userSpaceOnUse" color-interpolation-filters="sRGB">
<feFlood flood-opacity="0" result="BackgroundImageFix"/>
<feColorMatrix in="SourceAlpha" type="matrix" values="0 0 0 0 0 0 0 0 0 0 0 0 0 0 0 0 0 0 127 0" result="hardAlpha"/>
<feOffset dy="2"/>
<feGaussianBlur stdDeviation="2"/>
<feComposite in2="hardAlpha" operator="out"/>
<feColorMatrix type="matrix" values="0 0 0 0 0 0 0 0 0 0 0 0 0 0 0 0 0 0 0.25 0"/>
<feBlend mode="normal" in2="BackgroundImageFix" result="effect1_dropShadow_360_3696"/>
<feBlend mode="normal" in="SourceGraphic" in2="effect1_dropShadow_360_3696" result="shape"/>
</filter>
</defs>
</svg>
