<svg width="363" height="189" viewBox="0 0 363 189" fill="none" xmlns="http://www.w3.org/2000/svg">
<path d="M96.6721 151.686C37.1307 154.427 -34.2387 86.4005 -35.9321 54.124L-22.8886 302.746C58.3824 302.751 239.037 298.17 311.488 279.804C402.051 256.847 334.984 198.41 315.391 181.895C263.77 138.381 172.972 148.173 96.6721 151.686Z" fill="#5856E7"/>
<path d="M109.405 158.033C59.1864 162.669 4.05511 144.24 -28.2769 116.5L-10.8784 293.795C50.6981 295.472 187.48 295.112 241.996 280.25C310.14 261.672 259.608 217.711 256.592 197.808C253.577 177.904 180.741 151.447 109.405 158.033Z" fill="#8A88F5"/>
<path d="M123.677 166.712C74.8911 173.596 16.6269 174.276 -7.72248 164.951L-4.13667 235.148C62.048 233.101 209.598 226.608 270.321 217.014C346.225 205.021 294.151 178.852 267.105 171.596C246.61 166.098 184.659 158.107 123.677 166.712Z" fill="#F3F4FF" fill-opacity="0.5"/>
</svg>
