<svg width="178" height="196" viewBox="0 0 178 196" fill="none" xmlns="http://www.w3.org/2000/svg">
<path d="M72.9746 77.7706C76.3418 46.2844 27.7279 8.13761 3 -7H186.091C196.614 35.3853 216.081 129.965 209.767 169.202C201.875 218.248 134.531 169.202 115.065 169.202C95.598 169.202 68.7656 117.128 72.9746 77.7706Z" fill="#5856E7"/>
<path d="M85.2429 68.9078C83.3251 38.146 27.6152 10.3105 0 0.238037L185.499 -32.5409C203.334 6.1739 239.065 93.2818 239.31 131.995C239.615 180.386 167.553 161.421 143.362 148.95C125.03 139.499 87.6402 107.36 85.2429 68.9078Z" fill="#F3F4FF" fill-opacity="0.5"/>
<path d="M105.49 76.9122C108.064 45.0019 70.9026 6.34146 52 -9H191.959C200.003 33.9561 214.884 129.81 210.058 169.575C204.025 219.281 153.752 186.757 137.665 169.575C125.474 156.554 102.273 116.8 105.49 76.9122Z" fill="#8A88F5"/>
</svg>
