<svg width="375" height="257" viewBox="0 0 375 257" fill="none" xmlns="http://www.w3.org/2000/svg">
<path d="M113.247 215.752C46.6578 216.329 -37.4116 109.645 -41.2346 60.9453L-11.7859 436.075C79.328 440.929 281.588 444.803 361.718 421.47C461.881 392.304 383.206 300.316 360.256 274.28C299.789 205.683 198.578 215.013 113.247 215.752Z" fill="#5856E7"/>
<path d="M127.9 226.068C71.8762 230.054 8.96905 199.018 -28.9329 155.321L1.1451 423.314C70.2791 429.511 223.605 437.124 283.837 417.997C359.127 394.089 299.852 324.883 295.285 294.734C290.718 264.586 207.482 220.406 127.9 226.068Z" fill="#8A88F5"/>
<path d="M144.418 239.987C90.1344 247.444 24.8545 244.994 -2.99998 229.5L5.20606 335.41C79.2842 336.275 244.317 335.298 311.822 324.472C396.203 310.941 336.262 268.432 305.508 255.894C282.203 246.394 212.273 230.667 144.418 239.987Z" fill="#F3F4FF" fill-opacity="0.5"/>
</svg>
