<svg width="320" height="352" viewBox="0 0 320 352" fill="none" xmlns="http://www.w3.org/2000/svg">
<rect y="32" width="320" height="320" rx="160" fill="#FFD5DC" fill-opacity="0.5"/>
<path d="M93.9391 206.954C79.5497 181.794 88.2808 149.733 113.44 135.344L119.552 131.849C144.711 117.459 176.772 126.19 191.162 151.35L232.15 223.017L134.927 278.621L93.9391 206.954Z" fill="#FFDC60"/>
<ellipse cx="174.919" cy="233.908" rx="72" ry="27.6912" transform="rotate(-31.3631 174.919 233.908)" fill="#2D005B"/>
<ellipse cx="175.219" cy="235.741" rx="72" ry="27.6912" transform="rotate(-29.2165 175.219 235.741)" fill="#FFDC60"/>
<path d="M237.11 208.276C242.804 218.457 221.596 241.153 189.741 258.968C157.887 276.783 127.447 282.971 121.753 272.79C116.059 262.608 137.266 239.913 169.121 222.098C200.976 204.282 231.416 198.094 237.11 208.276Z" fill="#2D005B"/>
<ellipse cx="108.042" cy="125.573" rx="10.8" ry="10.4" transform="rotate(-9.18531 108.042 125.573)" fill="#FFDC60"/>
<path d="M114.169 123.367C114.448 120.08 110.371 119.929 108.472 118.21C108.672 117.773 109.583 117.058 111.631 117.7C114.192 118.501 115.237 119.953 116.015 122.258C116.793 124.564 113.89 126.654 114.169 123.367Z" fill="white"/>
<circle cx="190.143" cy="254.926" r="15.6" transform="rotate(-9.18531 190.143 254.926)" fill="#FF5977" stroke="#5856E7" stroke-width="0.8"/>
<path d="M201.644 258.615C203.833 254.964 200.323 252.589 199.663 249.576C200.097 249.178 201.324 248.843 202.754 250.69C204.541 252.999 204.606 255.242 203.93 258.329C203.255 261.415 199.456 262.266 201.644 258.615Z" fill="white"/>
<path d="M167.637 135.791C158.881 129.752 141.379 126.261 136.362 130.314C138.643 130.219 145.928 128.886 158.898 134.368C172.765 140.23 174.471 150.489 178.193 155.965C181.171 160.346 182.542 158.638 182.856 157.237C181.432 152.605 176.394 141.831 167.637 135.791Z" fill="white" stroke="white" stroke-width="0.8"/>
<path d="M139.6 44C148.8 61.2 140.738 63.0043 131.487 65.9863C122.235 68.9684 112.153 63.3747 108.968 53.4924C105.782 43.6102 110.7 33.1816 119.951 30.1995C129.203 27.2174 136.415 34.1178 139.6 44Z" fill="#FEC7B6"/>
<rect x="122.781" y="60.2478" width="14.629" height="20.8" transform="rotate(-18.458 122.781 60.2478)" fill="#FEC7B6"/>
<path d="M127.114 88.3277C124.712 80.1367 129.406 71.5498 137.597 69.1483V69.1483C145.788 66.7468 154.374 71.4401 156.776 79.6311L165.737 110.196C168.139 118.387 163.445 126.974 155.254 129.375V129.375C147.063 131.777 138.476 127.083 136.075 118.892L127.114 88.3277Z" fill="#5856E7"/>
<path d="M140 68.8L172.4 70L173.6 86L146.539 90.1399L140 68.8Z" fill="#5856E7"/>
<path d="M162.462 109.514L203.242 119.784L197.152 139.182L145.6 128.8L162.462 109.514Z" fill="#2D005B"/>
<path d="M224.236 184.349L224.554 185.395C225.384 188.134 222.841 190.7 220.095 189.894L196.992 183.116C195.161 182.578 194.067 180.705 194.499 178.846L195.909 172.787C196.36 170.85 198.295 169.646 200.232 170.096L206.097 171.461C206.487 171.552 206.859 171.707 207.197 171.919L216.992 178.076L222.941 182.506C223.559 182.966 224.013 183.612 224.236 184.349Z" fill="white" stroke="#2D005B" stroke-width="0.8"/>
<path d="M255.256 132.849L256.308 133.149C259.06 133.934 259.84 137.462 257.675 139.334L239.465 155.084C238.021 156.332 235.853 156.237 234.525 154.866L230.195 150.4C228.811 148.972 228.847 146.693 230.274 145.309L234.599 141.117C234.886 140.839 235.217 140.61 235.58 140.441L246.06 135.541L253.006 132.94C253.727 132.67 254.516 132.638 255.256 132.849Z" fill="white" stroke="#2D005B" stroke-width="0.8"/>
<path d="M192.015 138.038L201.12 121.659C202.595 119.006 206.59 119.705 207.076 122.701L210.4 143.2L210.4 174.547L201.6 177.2L192.015 177.2L192.015 138.038Z" fill="#2D005B"/>
<path d="M200.11 138.677L189.685 123.24C187.878 120.564 190.722 117.2 193.662 118.537L237.592 138.515L231.618 157.19L200.11 138.677Z" fill="#2D005B"/>
<path d="M182.98 37.9452C182.93 37.6876 183.009 37.4218 183.193 37.234L185.651 34.7147C186.106 34.2486 186.897 34.4922 187.011 35.1335L190.388 54.1329C190.474 54.6172 190.107 55.0638 189.615 55.0728L186.99 55.1209C186.602 55.128 186.264 54.855 186.19 54.4736L182.98 37.9452Z" fill="#FF5977"/>
<path d="M183.029 38.7489C182.979 38.5012 183.049 38.2445 183.217 38.0565L185.051 36.0133C185.494 35.5194 186.311 35.7487 186.433 36.4009L189.667 53.7482C189.759 54.242 189.379 54.6975 188.877 54.6948L186.891 54.6842C186.512 54.6822 186.186 54.4141 186.111 54.0423L183.029 38.7489Z" fill="white"/>
<path d="M172.4 70L178.4 64.7333L185.711 57.9334L190 62.4L173.6 83.2L172.4 70Z" fill="#FEC7B6"/>
<rect x="162.982" y="104.8" width="7.2" height="28.9264" transform="rotate(52.6083 162.982 104.8)" fill="#5856E7"/>
<path d="M110.8 33.6L120 29.6L125.6 29.2L131.6 31.6L133.2 32.8L122.4 42.4L126.8 54L125.2 62.4L124.4 67.2L114.8 63.2L106.4 55.2L105.6 42.4L110.8 33.6Z" fill="#FF5977"/>
<path d="M131.2 29.2C128.96 30.48 125.733 29.7333 124.4 29.2L126.4 36C127.467 36 130.16 35.52 132.4 33.6C134.64 31.68 134.933 29.8667 134.8 29.2L136 24C135.333 25.2 133.44 27.92 131.2 29.2Z" fill="#FF5977"/>
<path d="M116.8 29.2C112.32 31.44 110.933 33.6 110.8 34.4H120.4L123.6 30.4C124.4 27.0667 125.84 21.04 125.2 23.6C124.4 26.8 122.4 26.4 116.8 29.2Z" fill="#FF5977"/>
<path d="M130.8 28C130.8 30.88 128.4 32.1333 127.2 32.4L120 29.6C120.933 28.8 123.68 27.36 127.2 28C129.646 28.4447 130.559 26.8553 130.8 25.2177V23.2C130.881 23.7697 130.906 24.4983 130.8 25.2177V28Z" fill="#FF5977"/>
<path d="M143.6 49.2C143.867 48.9333 144.16 47.44 140 45.2L141.6 51.2L143.6 49.2Z" fill="#FEC7B6"/>
<ellipse cx="126.241" cy="51.7116" rx="3.5638" ry="5.34403" transform="rotate(-42.6106 126.241 51.7116)" fill="#FEC7B6"/>
<path d="M111.6 65.2C111.6 63.6 112 62.8 106.4 54.4L112.4 58.8C112.133 61.4667 111.6 66.48 111.6 65.2Z" fill="#FF5977"/>
<path d="M123.2 68.4L118 62L124 66.8L123.2 68.4Z" fill="#FF5977"/>
<path d="M189.662 44.4L189.354 42.8L188.462 38.4L192.308 44.4L195.262 49.2L194.462 55.6L191.569 60.4L187.138 66L182.8 60.8L186.4 57.2L187.138 54.8V52V51.2L186 48L185.6 46.8L186 45.6L187.2 46L188.985 48.8L191.569 52.4L191.938 49.6L191.2 47.6L189.662 44.4Z" fill="#FEC7B6"/>
<path d="M186.4 8.00001C186.4 3.58173 189.982 0 194.4 0H219.2C223.618 0 227.2 3.58172 227.2 8V17.6C227.2 22.0183 223.618 25.6 219.2 25.6H194.4C189.982 25.6 186.4 22.0183 186.4 17.6V8.00001Z" fill="#FF5977"/>
<path d="M188.8 28L193.6 25.6H206.4L188.8 28Z" fill="#FF5977"/>
<path d="M202.732 15.1477C202.357 15.1477 202.035 15.0152 201.766 14.75C201.501 14.4811 201.369 14.1591 201.369 13.7841C201.369 13.4129 201.501 13.0947 201.766 12.8295C202.035 12.5644 202.357 12.4318 202.732 12.4318C203.096 12.4318 203.414 12.5644 203.687 12.8295C203.96 13.0947 204.096 13.4129 204.096 13.7841C204.096 14.0341 204.031 14.2633 203.903 14.4716C203.778 14.6761 203.613 14.8409 203.408 14.9659C203.204 15.0871 202.978 15.1477 202.732 15.1477ZM207.498 15.1477C207.123 15.1477 206.801 15.0152 206.532 14.75C206.267 14.4811 206.134 14.1591 206.134 13.7841C206.134 13.4129 206.267 13.0947 206.532 12.8295C206.801 12.5644 207.123 12.4318 207.498 12.4318C207.862 12.4318 208.18 12.5644 208.452 12.8295C208.725 13.0947 208.862 13.4129 208.862 13.7841C208.862 14.0341 208.797 14.2633 208.668 14.4716C208.543 14.6761 208.379 14.8409 208.174 14.9659C207.969 15.0871 207.744 15.1477 207.498 15.1477ZM212.263 15.1477C211.888 15.1477 211.567 15.0152 211.298 14.75C211.032 14.4811 210.9 14.1591 210.9 13.7841C210.9 13.4129 211.032 13.0947 211.298 12.8295C211.567 12.5644 211.888 12.4318 212.263 12.4318C212.627 12.4318 212.945 12.5644 213.218 12.8295C213.491 13.0947 213.627 13.4129 213.627 13.7841C213.627 14.0341 213.563 14.2633 213.434 14.4716C213.309 14.6761 213.144 14.8409 212.94 14.9659C212.735 15.0871 212.51 15.1477 212.263 15.1477Z" fill="#2D005B"/>
</svg>
