<svg width="121" height="125" viewBox="0 0 121 125" fill="none" xmlns="http://www.w3.org/2000/svg">
<path d="M39.3256 56.4853C40.8139 64.5983 36.4729 72.5269 34.1163 75.477L84.1628 83.59C81.4961 80.5784 77.4651 67.6973 77.4651 64.0451C77.4651 56.4853 77.8372 33.4372 75.2325 28.6431C72.6279 23.8491 63.5832 16.9552 53.8372 18.1332C46.2093 19.0551 42.8605 22.4355 42.8605 24.5867C40.0698 25.0169 34.1163 31.1723 34.1163 38.2312C34.1163 47.4505 37.4651 46.3441 39.3256 56.4853Z" fill="#2D005B"/>
<rect x="50.8605" y="52.2444" width="11.5349" height="19.9136" fill="#FEC7B6"/>
<g filter="url(#filter0_d_110_3585)">
<ellipse cx="56.4418" cy="47.266" rx="14.1395" ry="17.1478" fill="#FEC7B6"/>
</g>
<ellipse cx="56.628" cy="80.8239" rx="26.6047" ry="12.7226" fill="#5856E7"/>
<path d="M51.3166 81.832L51.3246 82.576L47.7886 82.64L47.6286 84.896L46.8766 84.84L47.2606 79.696L47.6366 79.352L51.6606 79.48L51.6366 80.232L47.9806 80.12L47.8446 81.888L51.3166 81.832ZM52.1813 84.48L52.5493 80.96L52.9813 80.632L55.5493 81.048L55.4293 81.792L53.2613 81.44L52.9733 84.088L55.6453 83.768L55.7333 84.52L52.5893 84.888L52.1813 84.48ZM60.3366 84.728L60.1926 84.56L56.8886 85.088L56.4566 84.632L56.9206 82.8L57.2806 82.512H59.8086L59.6406 81.264L56.7606 81.968L56.5766 81.24L59.8646 80.432L60.3286 80.752L60.7766 84.072L61.3366 84.232L61.1366 84.952L60.3366 84.728ZM59.9846 83.824L59.9126 83.272H57.5766L57.3286 84.248L59.9846 83.824ZM61.8941 80.744L62.6461 80.72L62.6701 81.704L64.4941 80.84L64.8141 81.536L62.6941 82.528L62.7741 84.944L62.0141 84.96L61.8941 80.744ZM65.0563 84.504L65.4243 81.744L65.8563 81.424L68.2083 81.8L68.0803 80.008L68.8403 79.96L69.1203 84.168L68.7843 84.568L65.4643 84.928L65.0563 84.504ZM65.8643 84.128L68.3443 83.864L68.2563 82.568L66.1203 82.224L65.8643 84.128ZM48.4258 86.76L46.9778 89.32L46.3058 89.288L45.2178 86.92L44.5298 90.768L43.7858 90.632L44.6898 85.6L45.3938 85.512L46.6898 88.304L48.2898 85.48L48.9858 85.6L49.8978 90.632L49.1538 90.768L48.4258 86.76ZM54.6139 90.728L54.4699 90.56L51.1659 91.088L50.7339 90.632L51.1979 88.8L51.5579 88.512H54.0859L53.9179 87.264L51.0379 87.968L50.8539 87.24L54.1419 86.432L54.6059 86.752L55.0539 90.072L55.6139 90.232L55.4139 90.952L54.6139 90.728ZM54.2619 89.824L54.1899 89.272H51.8539L51.6059 90.248L54.2619 89.824ZM56.0914 90.744L56.2354 90L58.2514 90.384L58.8434 89.36L56.4594 89.024L56.1394 88.608L56.2594 87.064L56.6114 86.72L59.1714 86.52L59.2194 87.272L56.9954 87.44L56.9234 88.32L59.4914 88.688L59.7714 89.248L58.7714 90.992L58.3794 91.168L56.0914 90.744ZM62.3976 90.016L63.9656 90.464L63.7656 91.184L61.8856 90.656L61.6136 90.256L61.8136 88.104L60.2376 88.216L60.1736 87.456L61.8856 87.336L61.9656 86.496L62.7176 86.568L62.6536 87.288L64.4536 87.16L64.5016 87.904L62.5816 88.048L62.3976 90.016ZM65.4423 90.52L65.1383 90.096L65.5223 87.248L65.8583 86.928L68.2023 86.736L68.5703 86.936L69.2503 88.28L68.9863 88.816L66.4983 89.336L66.3383 88.608L68.3463 88.176L68.0103 87.512L66.2183 87.648L65.9303 89.848L68.6823 90.36L68.5383 91.096L65.4423 90.52ZM69.812 86.744L70.564 86.72L70.588 87.704L72.412 86.84L72.732 87.536L70.612 88.528L70.692 90.944L69.932 90.96L69.812 86.744Z" fill="#FFDC60"/>
<path d="M32.6166 75.1821L49.0948 110.103L11.7907 107.742L32.6166 75.1821Z" fill="#5856E7"/>
<path d="M80.7339 75.1821L64.2558 110.103L101.56 107.742L80.7339 75.1821Z" fill="#5856E7"/>
<path d="M57.5581 34.912C61.5767 34.617 63.1395 30.7326 62.7674 29.196L44.7209 30.4867L38.0233 39.5216C39.1395 45.299 41.5953 55.305 42.4884 49.1097C43.6046 41.3655 45.093 38.9685 46.3953 36.9402C47.6977 34.912 52.5349 35.2808 57.5581 34.912Z" fill="#2D005B"/>
<path d="M60.1628 27.3523C60.907 32.8101 70.7675 40.1978 72.0698 41.7344L60.1628 27.3523Z" fill="#2D005B"/>
<path d="M47.3112 43.1184C47.7277 42.7997 51.6265 43.1109 51.9955 43.158L52.847 43.8242L46.0232 44.3157C46.3953 43.9469 46.978 43.3734 47.3112 43.1184Z" fill="black"/>
<path d="M65.7698 42.9783C65.3532 42.6596 61.4544 42.9708 61.0854 43.0178L60.234 43.6841L67.0577 44.1756C66.6856 43.8068 66.103 43.2332 65.7698 42.9783Z" fill="black"/>
<ellipse cx="49.186" cy="46.1596" rx="1.30233" ry="1.2907" fill="#2D005B"/>
<ellipse cx="62.9534" cy="46.1596" rx="1.30233" ry="1.2907" fill="#2D005B"/>
<path d="M55.1429 48.801C55.0699 49.4853 54.9923 50.1679 54.9991 50.8574C55.0035 51.3062 55.0055 51.8504 55.2714 52.2404C55.3584 52.368 55.4888 52.46 55.6387 52.5012C55.8494 52.5593 56.1625 52.6404 56.3548 52.5134" stroke="black" stroke-width="0.368771" stroke-linecap="round"/>
<path d="M51.0284 56.1496C52.4466 57.1937 54.397 57.4279 56.1022 57.4452C57.3824 57.4582 58.5997 57.4772 59.7684 56.8843C60.3764 56.5759 60.8089 56.143 61.2159 55.6135" stroke="black" stroke-width="0.368771" stroke-linecap="round"/>
<path d="M61.1065 55.2891C61.2047 55.5122 61.3823 55.616 61.5559 55.779" stroke="black" stroke-width="0.368771" stroke-linecap="round"/>
<ellipse rx="2.23249" ry="3.68783" transform="matrix(0.99822 -0.0596415 0.060717 0.998155 42.5222 48.3142)" fill="#FEC7B6"/>
<ellipse rx="2.23249" ry="3.68783" transform="matrix(-0.99822 -0.0596415 -0.060717 0.998155 70.8013 47.9456)" fill="#FEC7B6"/>
<path fill-rule="evenodd" clip-rule="evenodd" d="M42.6744 70.0282C46.7589 68.8071 51.5862 68.1013 56.7583 68.1013C62.1794 68.1013 67.2218 68.8767 71.427 70.2082C69.8841 71.7494 64.0687 72.8953 57.1304 72.8953C49.9245 72.8953 43.9298 71.6593 42.6744 70.0282Z" fill="#FEC7B6"/>
<path d="M69.0963 45.6063C69.0963 48.4432 66.6939 50.7691 63.6977 50.7691C60.7014 50.7691 58.299 48.4432 58.299 45.6063C58.299 42.7693 60.7014 40.4435 63.6977 40.4435C66.6939 40.4435 69.0963 42.7693 69.0963 45.6063Z" stroke="#FF5977" stroke-width="0.737542"/>
<path d="M54.9568 45.6063C54.9568 48.4432 52.5544 50.7691 49.5582 50.7691C46.5619 50.7691 44.1595 48.4432 44.1595 45.6063C44.1595 42.7693 46.5619 40.4435 49.5582 40.4435C52.5544 40.4435 54.9568 42.7693 54.9568 45.6063Z" stroke="#FF5977" stroke-width="0.737542"/>
<path d="M54.6403 46.6589C54.5804 46.3548 54.307 45.6877 54.5616 45.3896C54.762 45.1549 55.1289 45.0317 55.4064 44.9304C56.0655 44.6897 56.8915 44.6432 57.5835 44.7804C57.8596 44.8351 58.3322 45.0261 58.5585 45.2005C58.727 45.3304 58.7825 45.4363 58.7825 45.6386C58.7825 45.9722 58.8808 46.4666 58.4555 46.5509" stroke="#FF5977" stroke-width="0.737542" stroke-linecap="round"/>
<path d="M41.4689 45.98C42.3949 46.7958 42.217 47.5599 42.4687 48.6825" stroke="black" stroke-width="0.368771" stroke-linecap="round"/>
<path d="M71.5812 45.6064C70.6552 46.4222 70.8331 47.1864 70.5814 48.309" stroke="black" stroke-width="0.368771" stroke-linecap="round"/>
<path d="M83.6047 114.013C87.921 115.046 97.7442 109.957 101.465 107.744L88.0698 105.716C86.2713 107.744 79.2884 112.981 83.6047 114.013Z" fill="#FF5977"/>
<path d="M84.7209 113.091L97.186 109.957L99.0465 117.332C99.493 119.102 97.372 121.143 96.2558 121.942H81L84.7209 113.091Z" fill="#FEC7B6"/>
<path d="M29.6512 113.829C25.335 114.862 15.5117 109.773 11.7908 107.56L25.1861 105.532C26.9846 107.56 33.9675 112.797 29.6512 113.829Z" fill="#FF5977"/>
<rect x="28.5349" y="88.0151" width="56.186" height="33.9269" rx="4.05648" fill="#D9D9D9"/>
<ellipse cx="56.6279" cy="104.794" rx="3.16279" ry="3.13455" fill="white"/>
<rect x="1" y="121.942" width="112" height="2.21262" fill="#FF5151"/>
<path d="M29.1538 113.276L16.6887 110.141L14.8282 117.517C14.3817 119.287 16.5026 121.327 17.6189 122.126H32.8747L29.1538 113.276Z" fill="#FEC7B6"/>
<rect width="48" height="16" rx="2.5" fill="#5856E7"/>
<rect x="4" y="3" width="9.6" height="9.65079" rx="2.48677" fill="#F3F4FF" fill-opacity="0.5"/>
<rect x="15" y="3" width="30.3158" height="2.03175" rx="1.01587" fill="#F3F4FF" fill-opacity="0.5"/>
<rect x="15" y="7" width="14.6526" height="2.03175" rx="1.01587" fill="#F3F4FF" fill-opacity="0.5"/>
<path d="M41.0526 24L35.4947 16.127H38.6526L41.0526 24Z" fill="#5856E7"/>
<rect width="48" height="17.9894" rx="2.5" transform="matrix(-1 0 0 1 121 12)" fill="#FF5977"/>
<rect width="9.6" height="10.0529" rx="2.5" transform="matrix(-1 0 0 1 117.463 15.9685)" fill="#FFDC60"/>
<rect width="30.3158" height="2.1164" rx="1.0582" transform="matrix(-1 0 0 1 105.589 16.762)" fill="#FFDC60"/>
<rect width="14.6526" height="2.1164" rx="1.0582" transform="matrix(-1 0 0 1 105.653 22)" fill="#FFDC60"/>
<path d="M78.4421 35.2011L84 27H80.8421L78.4421 35.2011Z" fill="#FF5977"/>
<defs>
<filter id="filter0_d_110_3585" x="40.8272" y="30.1182" width="31.2292" height="37.2458" filterUnits="userSpaceOnUse" color-interpolation-filters="sRGB">
<feFlood flood-opacity="0" result="BackgroundImageFix"/>
<feColorMatrix in="SourceAlpha" type="matrix" values="0 0 0 0 0 0 0 0 0 0 0 0 0 0 0 0 0 0 127 0" result="hardAlpha"/>
<feOffset dy="1.47508"/>
<feGaussianBlur stdDeviation="0.737542"/>
<feComposite in2="hardAlpha" operator="out"/>
<feColorMatrix type="matrix" values="0 0 0 0 0 0 0 0 0 0 0 0 0 0 0 0 0 0 0.25 0"/>
<feBlend mode="normal" in2="BackgroundImageFix" result="effect1_dropShadow_110_3585"/>
<feBlend mode="normal" in="SourceGraphic" in2="effect1_dropShadow_110_3585" result="shape"/>
</filter>
</defs>
</svg>
